<?xml version="1.0" encoding="UTF-8" standalone="no"?>
<!DOCTYPE svg PUBLIC "-//W3C//DTD SVG 1.1//EN"
 "http://www.w3.org/Graphics/SVG/1.1/DTD/svg11.dtd">
<!-- Generated by graphviz version 2.26.3 (20100126.1600)
 -->
<!-- Title: nodeset10444 Pages: 1 -->
<svg width="4289pt" height="356pt"
 viewBox="0.00 0.00 4289.00 356.00" xmlns="http://www.w3.org/2000/svg" xmlns:xlink="http://www.w3.org/1999/xlink">
<g id="graph1" class="graph" transform="scale(1 1) rotate(0) translate(4 352)">
<title>nodeset10444</title>
<polygon fill="white" stroke="white" points="-4,5 -4,-352 4286,-352 4286,5 -4,5"/>
<!-- 217442 -->
<g id="node1" class="node"><title>217442</title>
<polygon fill="#ebf3ff" stroke="#6666cc" points="144,-292 7.10543e-14,-292 0,-256 144,-256 144,-292"/>
<text text-anchor="middle" x="72" y="-279" font-family="FreeSans" font-size="10.00">X would not be a third term of</text>
<text text-anchor="middle" x="72" y="-265" font-family="FreeSans" font-size="10.00">OBAMA by XX</text>
</g>
<!-- 217446 -->
<g id="node2" class="node"><title>217446</title>
<polygon fill="#ebf3ff" stroke="#6666cc" points="290,-64 184,-64 184,-28 290,-28 290,-64"/>
<text text-anchor="middle" x="237" y="-44" font-family="FreeSans" font-size="10.00">that &#39;s pretty obvious</text>
</g>
<!-- 217451 -->
<g id="node3" class="node"><title>217451</title>
<polygon fill="#ebf3ff" stroke="#6666cc" points="312,-313 162,-313 162,-235 312,-235 312,-313"/>
<text text-anchor="middle" x="237" y="-300" font-family="FreeSans" font-size="10.00">being the first woman</text>
<text text-anchor="middle" x="237" y="-286" font-family="FreeSans" font-size="10.00">president would be quite a</text>
<text text-anchor="middle" x="237" y="-272" font-family="FreeSans" font-size="10.00">change from the presidents we</text>
<text text-anchor="middle" x="237" y="-258" font-family="FreeSans" font-size="10.00">&#39;ve had up until this point,</text>
<text text-anchor="middle" x="237" y="-244" font-family="FreeSans" font-size="10.00">including OBAMA</text>
</g>
<!-- 217456 -->
<g id="node4" class="node"><title>217456</title>
<polygon fill="#e6ffe6" stroke="#66cc66" points="237,-164 156.206,-146 237,-128 317.794,-146 237,-164"/>
<text text-anchor="middle" x="237" y="-144" font-family="FreeSans" font-size="10.00">Default Inference</text>
</g>
<!-- 217451&#45;&gt;217456 -->
<g id="edge4" class="edge"><title>217451&#45;&gt;217456</title>
<path fill="none" stroke="black" d="M237,-234.9C237,-215.325 237,-192.069 237,-174.253"/>
<polygon fill="black" stroke="black" points="240.5,-174.203 237,-164.203 233.5,-174.203 240.5,-174.203"/>
</g>
<!-- 217456&#45;&gt;217446 -->
<g id="edge2" class="edge"><title>217456&#45;&gt;217446</title>
<path fill="none" stroke="black" d="M237,-127.658C237,-112.716 237,-91.3665 237,-74.2446"/>
<polygon fill="black" stroke="black" points="240.5,-74.2252 237,-64.2253 233.5,-74.2253 240.5,-74.2252"/>
</g>
<!-- 217458 -->
<g id="node5" class="node"><title>217458</title>
<polygon fill="#ebf3ff" stroke="#6666cc" points="466,-292 330,-292 330,-256 466,-256 466,-292"/>
<text text-anchor="middle" x="398" y="-279" font-family="FreeSans" font-size="10.00">there is a policy difference /</text>
<text text-anchor="middle" x="398" y="-265" font-family="FreeSans" font-size="10.00">there is no policy difference</text>
</g>
<!-- 217464 -->
<g id="node6" class="node"><title>217464</title>
<polygon fill="#ebf3ff" stroke="#6666cc" points="618,-299 484,-299 484,-249 618,-249 618,-299"/>
<text text-anchor="middle" x="551" y="-286" font-family="FreeSans" font-size="10.00">there &#39;s a lot that CLINTON</text>
<text text-anchor="middle" x="551" y="-272" font-family="FreeSans" font-size="10.00">would like to do to build on</text>
<text text-anchor="middle" x="551" y="-258" font-family="FreeSans" font-size="10.00">the successes of OBAMA</text>
</g>
<!-- 217469 -->
<g id="node7" class="node"><title>217469</title>
<polygon fill="#ebf3ff" stroke="#6666cc" points="800,-292 636,-292 636,-256 800,-256 800,-292"/>
<text text-anchor="middle" x="718" y="-279" font-family="FreeSans" font-size="10.00">CLINTON would also like to go</text>
<text text-anchor="middle" x="718" y="-265" font-family="FreeSans" font-size="10.00">beyond the successes of OBAMA</text>
</g>
<!-- 217474 -->
<g id="node8" class="node"><title>217474</title>
<polygon fill="#ebf3ff" stroke="#6666cc" points="970,-348 818,-348 818,-200 970,-200 970,-348"/>
<text text-anchor="middle" x="894" y="-335" font-family="FreeSans" font-size="10.00">that &#39;s in CLINTON&#39;S</text>
<text text-anchor="middle" x="894" y="-321" font-family="FreeSans" font-size="10.00">economic plans, how CLINTON</text>
<text text-anchor="middle" x="894" y="-307" font-family="FreeSans" font-size="10.00">would deal with the</text>
<text text-anchor="middle" x="894" y="-293" font-family="FreeSans" font-size="10.00">prescription drug companies ,</text>
<text text-anchor="middle" x="894" y="-279" font-family="FreeSans" font-size="10.00">how CLINTON would deal with</text>
<text text-anchor="middle" x="894" y="-265" font-family="FreeSans" font-size="10.00">college , how CLINTON would</text>
<text text-anchor="middle" x="894" y="-251" font-family="FreeSans" font-size="10.00">deal with a full range of</text>
<text text-anchor="middle" x="894" y="-237" font-family="FreeSans" font-size="10.00">issues that CLINTON has been</text>
<text text-anchor="middle" x="894" y="-223" font-family="FreeSans" font-size="10.00">talking about throughout this</text>
<text text-anchor="middle" x="894" y="-209" font-family="FreeSans" font-size="10.00">campaign to go further</text>
</g>
<!-- 217481 -->
<g id="node9" class="node"><title>217481</title>
<polygon fill="#ebf3ff" stroke="#6666cc" points="1138,-292 988,-292 988,-256 1138,-256 1138,-292"/>
<text text-anchor="middle" x="1063" y="-279" font-family="FreeSans" font-size="10.00">SANDERS has a lot of respect</text>
<text text-anchor="middle" x="1063" y="-265" font-family="FreeSans" font-size="10.00">for OBAMA</text>
</g>
<!-- 217487 -->
<g id="node10" class="node"><title>217487</title>
<polygon fill="#ebf3ff" stroke="#6666cc" points="1332,-299 1156,-299 1156,-249 1332,-249 1332,-299"/>
<text text-anchor="middle" x="1244" y="-286" font-family="FreeSans" font-size="10.00">SANDERS has worked with OBAMA</text>
<text text-anchor="middle" x="1244" y="-272" font-family="FreeSans" font-size="10.00">time and time again on many,</text>
<text text-anchor="middle" x="1244" y="-258" font-family="FreeSans" font-size="10.00">many issues</text>
</g>
<!-- 217492 -->
<g id="node11" class="node"><title>217492</title>
<polygon fill="#ebf3ff" stroke="#6666cc" points="1494,-292 1350,-292 1350,-256 1494,-256 1494,-292"/>
<text text-anchor="middle" x="1422" y="-279" font-family="FreeSans" font-size="10.00">here&#39;s where SANDERS does</text>
<text text-anchor="middle" x="1422" y="-265" font-family="FreeSans" font-size="10.00">disagree</text>
</g>
<!-- 217502 -->
<g id="node12" class="node"><title>217502</title>
<polygon fill="#ebf3ff" stroke="#6666cc" points="1658,-299 1512,-299 1512,-249 1658,-249 1658,-299"/>
<text text-anchor="middle" x="1585" y="-286" font-family="FreeSans" font-size="10.00">WEBB has got a great deal of</text>
<text text-anchor="middle" x="1585" y="-272" font-family="FreeSans" font-size="10.00">admiration and affection for</text>
<text text-anchor="middle" x="1585" y="-258" font-family="FreeSans" font-size="10.00">SANDERS</text>
</g>
<!-- 217507 -->
<g id="node13" class="node"><title>217507</title>
<polygon fill="#ebf3ff" stroke="#6666cc" points="1814,-64 1684,-64 1684,-28 1814,-28 1814,-64"/>
<text text-anchor="middle" x="1749" y="-51" font-family="FreeSans" font-size="10.00">WEBB doesn&#39;t think the</text>
<text text-anchor="middle" x="1749" y="-37" font-family="FreeSans" font-size="10.00">revolution&#39;s going to come</text>
</g>
<!-- 217511 -->
<g id="node14" class="node"><title>217511</title>
<polygon fill="#ebf3ff" stroke="#6666cc" points="1822,-299 1676,-299 1676,-249 1822,-249 1822,-299"/>
<text text-anchor="middle" x="1749" y="-286" font-family="FreeSans" font-size="10.00">WEBB doesn&#39;t think the</text>
<text text-anchor="middle" x="1749" y="-272" font-family="FreeSans" font-size="10.00">Congress is going to pay for a</text>
<text text-anchor="middle" x="1749" y="-258" font-family="FreeSans" font-size="10.00">lot of this stuff</text>
</g>
<!-- 217516 -->
<g id="node15" class="node"><title>217516</title>
<polygon fill="#e6ffe6" stroke="#66cc66" points="1749,-164 1668.21,-146 1749,-128 1829.79,-146 1749,-164"/>
<text text-anchor="middle" x="1749" y="-144" font-family="FreeSans" font-size="10.00">Default Inference</text>
</g>
<!-- 217511&#45;&gt;217516 -->
<g id="edge8" class="edge"><title>217511&#45;&gt;217516</title>
<path fill="none" stroke="black" d="M1749,-248.711C1749,-227.298 1749,-196.624 1749,-174.377"/>
<polygon fill="black" stroke="black" points="1752.5,-174.21 1749,-164.21 1745.5,-174.21 1752.5,-174.21"/>
</g>
<!-- 217516&#45;&gt;217507 -->
<g id="edge6" class="edge"><title>217516&#45;&gt;217507</title>
<path fill="none" stroke="black" d="M1749,-127.658C1749,-112.716 1749,-91.3665 1749,-74.2446"/>
<polygon fill="black" stroke="black" points="1752.5,-74.2252 1749,-64.2253 1745.5,-74.2253 1752.5,-74.2252"/>
</g>
<!-- 217519 -->
<g id="node16" class="node"><title>217519</title>
<polygon fill="#ebf3ff" stroke="#6666cc" points="1992,-313 1840,-313 1840,-235 1992,-235 1992,-313"/>
<text text-anchor="middle" x="1916" y="-300" font-family="FreeSans" font-size="10.00">if there would be a major</text>
<text text-anchor="middle" x="1916" y="-286" font-family="FreeSans" font-size="10.00">difference between WEBB</text>
<text text-anchor="middle" x="1916" y="-272" font-family="FreeSans" font-size="10.00">administration and the OBAMA</text>
<text text-anchor="middle" x="1916" y="-258" font-family="FreeSans" font-size="10.00">administration, it would be in</text>
<text text-anchor="middle" x="1916" y="-244" font-family="FreeSans" font-size="10.00">the use of executive authority</text>
</g>
<!-- 217524 -->
<g id="node17" class="node"><title>217524</title>
<polygon fill="#ebf3ff" stroke="#6666cc" points="2166,-320 2010,-320 2010,-228 2166,-228 2166,-320"/>
<text text-anchor="middle" x="2088" y="-307" font-family="FreeSans" font-size="10.00">WEBB came up as a committee</text>
<text text-anchor="middle" x="2088" y="-293" font-family="FreeSans" font-size="10.00">counsel in the Congress, used</text>
<text text-anchor="middle" x="2088" y="-279" font-family="FreeSans" font-size="10.00">to put dozens of bills through</text>
<text text-anchor="middle" x="2088" y="-265" font-family="FreeSans" font-size="10.00">the House floor every year as</text>
<text text-anchor="middle" x="2088" y="-251" font-family="FreeSans" font-size="10.00">a committee counsel on the</text>
<text text-anchor="middle" x="2088" y="-237" font-family="FreeSans" font-size="10.00">Veterans Committee</text>
</g>
<!-- 217540 -->
<g id="node21" class="node"><title>217540</title>
<polygon fill="#e6ffe6" stroke="#66cc66" points="2088,-164 2007.21,-146 2088,-128 2168.79,-146 2088,-164"/>
<text text-anchor="middle" x="2088" y="-144" font-family="FreeSans" font-size="10.00">Default Inference</text>
</g>
<!-- 217524&#45;&gt;217540 -->
<g id="edge16" class="edge"><title>217524&#45;&gt;217540</title>
<path fill="none" stroke="black" d="M2088,-227.789C2088,-209.869 2088,-189.927 2088,-174.221"/>
<polygon fill="black" stroke="black" points="2091.5,-174.102 2088,-164.102 2084.5,-174.102 2091.5,-174.102"/>
</g>
<!-- 217528 -->
<g id="node18" class="node"><title>217528</title>
<polygon fill="#ebf3ff" stroke="#6666cc" points="2346,-327 2190,-327 2190,-221 2346,-221 2346,-327"/>
<text text-anchor="middle" x="2268" y="-314" font-family="FreeSans" font-size="10.00">WEBB has a very strong feeling</text>
<text text-anchor="middle" x="2268" y="-300" font-family="FreeSans" font-size="10.00">about how our federal system</text>
<text text-anchor="middle" x="2268" y="-286" font-family="FreeSans" font-size="10.00">works and how we need to lead</text>
<text text-anchor="middle" x="2268" y="-272" font-family="FreeSans" font-size="10.00">and energize the congressional</text>
<text text-anchor="middle" x="2268" y="-258" font-family="FreeSans" font-size="10.00">process instead of allowing</text>
<text text-anchor="middle" x="2268" y="-244" font-family="FreeSans" font-size="10.00">these divisions to continue to</text>
<text text-anchor="middle" x="2268" y="-230" font-family="FreeSans" font-size="10.00">paralyze what we &#39;re doing</text>
</g>
<!-- 217537 -->
<g id="node20" class="node"><title>217537</title>
<polygon fill="#e6ffe6" stroke="#66cc66" points="2268,-164 2187.21,-146 2268,-128 2348.79,-146 2268,-164"/>
<text text-anchor="middle" x="2268" y="-144" font-family="FreeSans" font-size="10.00">Default Inference</text>
</g>
<!-- 217528&#45;&gt;217537 -->
<g id="edge12" class="edge"><title>217528&#45;&gt;217537</title>
<path fill="none" stroke="black" d="M2268,-220.828C2268,-204.894 2268,-188.037 2268,-174.365"/>
<polygon fill="black" stroke="black" points="2271.5,-174.162 2268,-164.162 2264.5,-174.162 2271.5,-174.162"/>
</g>
<!-- 217533 -->
<g id="node19" class="node"><title>217533</title>
<polygon fill="#ebf3ff" stroke="#6666cc" points="2252,-85 2104,-85 2104,-7 2252,-7 2252,-85"/>
<text text-anchor="middle" x="2178" y="-72" font-family="FreeSans" font-size="10.00">WEBB would lead — working</text>
<text text-anchor="middle" x="2178" y="-58" font-family="FreeSans" font-size="10.00">with both parties in the</text>
<text text-anchor="middle" x="2178" y="-44" font-family="FreeSans" font-size="10.00">Congress and working through</text>
<text text-anchor="middle" x="2178" y="-30" font-family="FreeSans" font-size="10.00">them in the traditional way</text>
<text text-anchor="middle" x="2178" y="-16" font-family="FreeSans" font-size="10.00">that our Constitution sets</text>
</g>
<!-- 217537&#45;&gt;217533 -->
<g id="edge10" class="edge"><title>217537&#45;&gt;217533</title>
<path fill="none" stroke="black" d="M2254.33,-130.812C2245.12,-120.578 2232.43,-106.48 2220.04,-92.7161"/>
<polygon fill="black" stroke="black" points="2222.51,-90.2219 2213.22,-85.1303 2217.31,-94.9047 2222.51,-90.2219"/>
</g>
<!-- 217540&#45;&gt;217533 -->
<g id="edge14" class="edge"><title>217540&#45;&gt;217533</title>
<path fill="none" stroke="black" d="M2101.67,-130.812C2110.88,-120.578 2123.57,-106.48 2135.96,-92.7161"/>
<polygon fill="black" stroke="black" points="2138.69,-94.9047 2142.78,-85.1303 2133.49,-90.2219 2138.69,-94.9047"/>
</g>
<!-- 217543 -->
<g id="node22" class="node"><title>217543</title>
<polygon fill="#ebf3ff" stroke="#6666cc" points="2484,-292 2364,-292 2364,-256 2484,-256 2484,-292"/>
<text text-anchor="middle" x="2424" y="-272" font-family="FreeSans" font-size="10.00">WEBB cited SANDERS</text>
</g>
<!-- 217548 -->
<g id="node23" class="node"><title>217548</title>
<polygon fill="#ebf3ff" stroke="#6666cc" points="2624,-306 2502,-306 2502,-242 2624,-242 2624,-306"/>
<text text-anchor="middle" x="2563" y="-293" font-family="FreeSans" font-size="10.00">you don&#39;t hear a lot of</text>
<text text-anchor="middle" x="2563" y="-279" font-family="FreeSans" font-size="10.00">Democratic presidential</text>
<text text-anchor="middle" x="2563" y="-265" font-family="FreeSans" font-size="10.00">candidates talking about</text>
<text text-anchor="middle" x="2563" y="-251" font-family="FreeSans" font-size="10.00">revolution</text>
</g>
<!-- 217553 -->
<g id="node24" class="node"><title>217553</title>
<polygon fill="#ebf3ff" stroke="#6666cc" points="2748,-292 2642,-292 2642,-256 2748,-256 2748,-292"/>
<text text-anchor="middle" x="2695" y="-272" font-family="FreeSans" font-size="10.00">SANDERS means X</text>
</g>
<!-- 217558 -->
<g id="node25" class="node"><title>217558</title>
<polygon fill="#ebf3ff" stroke="#6666cc" points="2930,-306 2766,-306 2766,-242 2930,-242 2930,-306"/>
<text text-anchor="middle" x="2848" y="-293" font-family="FreeSans" font-size="10.00">what SANDERS means is that we</text>
<text text-anchor="middle" x="2848" y="-279" font-family="FreeSans" font-size="10.00">need to have one of the larger</text>
<text text-anchor="middle" x="2848" y="-265" font-family="FreeSans" font-size="10.00">voter turnouts in the world,</text>
<text text-anchor="middle" x="2848" y="-251" font-family="FreeSans" font-size="10.00">not one of the lowest</text>
</g>
<!-- 217563 -->
<g id="node26" class="node"><title>217563</title>
<polygon fill="#ebf3ff" stroke="#6666cc" points="3064,-292 2948,-292 2948,-256 3064,-256 3064,-292"/>
<text text-anchor="middle" x="3006" y="-279" font-family="FreeSans" font-size="10.00">we need to raise public</text>
<text text-anchor="middle" x="3006" y="-265" font-family="FreeSans" font-size="10.00">consciousness</text>
</g>
<!-- 217568 -->
<g id="node27" class="node"><title>217568</title>
<polygon fill="#ebf3ff" stroke="#6666cc" points="3238,-306 3082,-306 3082,-242 3238,-242 3238,-306"/>
<text text-anchor="middle" x="3160" y="-293" font-family="FreeSans" font-size="10.00">we need the American people to</text>
<text text-anchor="middle" x="3160" y="-279" font-family="FreeSans" font-size="10.00">know what &#39;s going on in</text>
<text text-anchor="middle" x="3160" y="-265" font-family="FreeSans" font-size="10.00">Washington in a way that today</text>
<text text-anchor="middle" x="3160" y="-251" font-family="FreeSans" font-size="10.00">they do not know</text>
</g>
<!-- 217573 -->
<g id="node28" class="node"><title>217573</title>
<polygon fill="#ebf3ff" stroke="#6666cc" points="3410,-320 3256,-320 3256,-228 3410,-228 3410,-320"/>
<text text-anchor="middle" x="3333" y="-307" font-family="FreeSans" font-size="10.00">when people come together in a</text>
<text text-anchor="middle" x="3333" y="-293" font-family="FreeSans" font-size="10.00">way that does not exist now</text>
<text text-anchor="middle" x="3333" y="-279" font-family="FreeSans" font-size="10.00">and are prepared to take on</text>
<text text-anchor="middle" x="3333" y="-265" font-family="FreeSans" font-size="10.00">the big money interest , then</text>
<text text-anchor="middle" x="3333" y="-251" font-family="FreeSans" font-size="10.00">we could bring the kind of</text>
<text text-anchor="middle" x="3333" y="-237" font-family="FreeSans" font-size="10.00">change we need</text>
</g>
<!-- 217578 -->
<g id="node29" class="node"><title>217578</title>
<polygon fill="#ebf3ff" stroke="#6666cc" points="3759,-64 3611,-64 3611,-28 3759,-28 3759,-64"/>
<text text-anchor="middle" x="3685" y="-51" font-family="FreeSans" font-size="10.00">O&#39;MALLEY actually has talked</text>
<text text-anchor="middle" x="3685" y="-37" font-family="FreeSans" font-size="10.00">about a revolution</text>
</g>
<!-- 217584 -->
<g id="node30" class="node"><title>217584</title>
<polygon fill="#ebf3ff" stroke="#6666cc" points="3582,-292 3428,-292 3428,-256 3582,-256 3582,-292"/>
<text text-anchor="middle" x="3505" y="-279" font-family="FreeSans" font-size="10.00">what we need is a green energy</text>
<text text-anchor="middle" x="3505" y="-265" font-family="FreeSans" font-size="10.00">revolution</text>
</g>
<!-- 217585 -->
<g id="node31" class="node"><title>217585</title>
<polygon fill="#e6ffe6" stroke="#66cc66" points="3505,-164 3424.21,-146 3505,-128 3585.79,-146 3505,-164"/>
<text text-anchor="middle" x="3505" y="-144" font-family="FreeSans" font-size="10.00">Default Inference</text>
</g>
<!-- 217584&#45;&gt;217585 -->
<g id="edge20" class="edge"><title>217584&#45;&gt;217585</title>
<path fill="none" stroke="black" d="M3505,-255.932C3505,-234.802 3505,-199.553 3505,-174.674"/>
<polygon fill="black" stroke="black" points="3508.5,-174.39 3505,-164.39 3501.5,-174.39 3508.5,-174.39"/>
</g>
<!-- 217585&#45;&gt;217578 -->
<g id="edge18" class="edge"><title>217585&#45;&gt;217578</title>
<path fill="none" stroke="black" d="M3528.16,-133.131C3557.31,-116.938 3607.89,-88.8396 3643.72,-68.9338"/>
<polygon fill="black" stroke="black" points="3645.45,-71.9778 3652.49,-64.0617 3642.05,-65.8587 3645.45,-71.9778"/>
</g>
<!-- 217591 -->
<g id="node32" class="node"><title>217591</title>
<polygon fill="#ebf3ff" stroke="#6666cc" points="3759,-299 3611,-299 3611,-249 3759,-249 3759,-299"/>
<text text-anchor="middle" x="3685" y="-286" font-family="FreeSans" font-size="10.00">we need to move America to a</text>
<text text-anchor="middle" x="3685" y="-272" font-family="FreeSans" font-size="10.00">100 percent clean electric</text>
<text text-anchor="middle" x="3685" y="-258" font-family="FreeSans" font-size="10.00">grid by 2050</text>
</g>
<!-- 217618 -->
<g id="node38" class="node"><title>217618</title>
<polygon fill="#e6ffe6" stroke="#66cc66" points="3685,-164 3604.21,-146 3685,-128 3765.79,-146 3685,-164"/>
<text text-anchor="middle" x="3685" y="-144" font-family="FreeSans" font-size="10.00">Default Inference</text>
</g>
<!-- 217591&#45;&gt;217618 -->
<g id="edge28" class="edge"><title>217591&#45;&gt;217618</title>
<path fill="none" stroke="black" d="M3685,-248.711C3685,-227.298 3685,-196.624 3685,-174.377"/>
<polygon fill="black" stroke="black" points="3688.5,-174.21 3685,-164.21 3681.5,-174.21 3688.5,-174.21"/>
</g>
<!-- 217595 -->
<g id="node33" class="node"><title>217595</title>
<polygon fill="#ebf3ff" stroke="#6666cc" points="3931,-292 3799,-292 3799,-256 3931,-256 3931,-292"/>
<text text-anchor="middle" x="3865" y="-279" font-family="FreeSans" font-size="10.00">we need to create 5 million</text>
<text text-anchor="middle" x="3865" y="-265" font-family="FreeSans" font-size="10.00">jobs along the way</text>
</g>
<!-- 217621 -->
<g id="node39" class="node"><title>217621</title>
<polygon fill="#e6ffe6" stroke="#66cc66" points="3865,-164 3784.21,-146 3865,-128 3945.79,-146 3865,-164"/>
<text text-anchor="middle" x="3865" y="-144" font-family="FreeSans" font-size="10.00">Default Inference</text>
</g>
<!-- 217595&#45;&gt;217621 -->
<g id="edge32" class="edge"><title>217595&#45;&gt;217621</title>
<path fill="none" stroke="black" d="M3865,-255.932C3865,-234.802 3865,-199.553 3865,-174.674"/>
<polygon fill="black" stroke="black" points="3868.5,-174.39 3865,-164.39 3861.5,-174.39 3868.5,-174.39"/>
</g>
<!-- 217599 -->
<g id="node34" class="node"><title>217599</title>
<polygon fill="#ebf3ff" stroke="#6666cc" points="4115,-313 3975,-313 3975,-235 4115,-235 4115,-313"/>
<text text-anchor="middle" x="4045" y="-300" font-family="FreeSans" font-size="10.00">the power of corporate</text>
<text text-anchor="middle" x="4045" y="-286" font-family="FreeSans" font-size="10.00">America, the power of Wall</text>
<text text-anchor="middle" x="4045" y="-272" font-family="FreeSans" font-size="10.00">Street, the power of the drug</text>
<text text-anchor="middle" x="4045" y="-258" font-family="FreeSans" font-size="10.00">companies, the power of the</text>
<text text-anchor="middle" x="4045" y="-244" font-family="FreeSans" font-size="10.00">corporate media is so great</text>
</g>
<!-- 217606 -->
<g id="node37" class="node"><title>217606</title>
<polygon fill="#e6ffe6" stroke="#66cc66" points="4045,-164 3964.21,-146 4045,-128 4125.79,-146 4045,-164"/>
<text text-anchor="middle" x="4045" y="-144" font-family="FreeSans" font-size="10.00">Default Inference</text>
</g>
<!-- 217599&#45;&gt;217606 -->
<g id="edge24" class="edge"><title>217599&#45;&gt;217606</title>
<path fill="none" stroke="black" d="M4045,-234.9C4045,-215.325 4045,-192.069 4045,-174.253"/>
<polygon fill="black" stroke="black" points="4048.5,-174.203 4045,-164.203 4041.5,-174.203 4048.5,-174.203"/>
</g>
<!-- 217600 -->
<g id="node35" class="node"><title>217600</title>
<polygon fill="#ebf3ff" stroke="#6666cc" points="4119,-92 3971,-92 3971,-4.9738e-14 4119,-2.13163e-14 4119,-92"/>
<text text-anchor="middle" x="4045" y="-79" font-family="FreeSans" font-size="10.00">the only way we really</text>
<text text-anchor="middle" x="4045" y="-65" font-family="FreeSans" font-size="10.00">transform America and do the</text>
<text text-anchor="middle" x="4045" y="-51" font-family="FreeSans" font-size="10.00">things that the middle class</text>
<text text-anchor="middle" x="4045" y="-37" font-family="FreeSans" font-size="10.00">and working class desperately</text>
<text text-anchor="middle" x="4045" y="-23" font-family="FreeSans" font-size="10.00">need is through a political</text>
<text text-anchor="middle" x="4045" y="-9" font-family="FreeSans" font-size="10.00">revolution</text>
</g>
<!-- 217601 -->
<g id="node36" class="node"><title>217601</title>
<polygon fill="#ebf3ff" stroke="#6666cc" points="4281,-320 4133,-320 4133,-228 4281,-228 4281,-320"/>
<text text-anchor="middle" x="4207" y="-307" font-family="FreeSans" font-size="10.00">when millions of people begin</text>
<text text-anchor="middle" x="4207" y="-293" font-family="FreeSans" font-size="10.00">to come together and stand up</text>
<text text-anchor="middle" x="4207" y="-279" font-family="FreeSans" font-size="10.00">and say: Our government is</text>
<text text-anchor="middle" x="4207" y="-265" font-family="FreeSans" font-size="10.00">going to work for all of us,</text>
<text text-anchor="middle" x="4207" y="-251" font-family="FreeSans" font-size="10.00">not just a handful of</text>
<text text-anchor="middle" x="4207" y="-237" font-family="FreeSans" font-size="10.00">billionaires</text>
</g>
<!-- 217606&#45;&gt;217600 -->
<g id="edge22" class="edge"><title>217606&#45;&gt;217600</title>
<path fill="none" stroke="black" d="M4045,-127.658C4045,-120.288 4045,-111.358 4045,-102.146"/>
<polygon fill="black" stroke="black" points="4048.5,-102.099 4045,-92.0988 4041.5,-102.099 4048.5,-102.099"/>
</g>
<!-- 217618&#45;&gt;217578 -->
<g id="edge26" class="edge"><title>217618&#45;&gt;217578</title>
<path fill="none" stroke="black" d="M3685,-127.658C3685,-112.716 3685,-91.3665 3685,-74.2446"/>
<polygon fill="black" stroke="black" points="3688.5,-74.2252 3685,-64.2253 3681.5,-74.2253 3688.5,-74.2252"/>
</g>
<!-- 217621&#45;&gt;217578 -->
<g id="edge30" class="edge"><title>217621&#45;&gt;217578</title>
<path fill="none" stroke="black" d="M3841.84,-133.131C3812.69,-116.938 3762.11,-88.8396 3726.28,-68.9338"/>
<polygon fill="black" stroke="black" points="3727.95,-65.8587 3717.51,-64.0617 3724.55,-71.9778 3727.95,-65.8587"/>
</g>
</g>
</svg>
