<?xml version="1.0" encoding="UTF-8" standalone="no"?>
<!DOCTYPE svg PUBLIC "-//W3C//DTD SVG 1.1//EN"
 "http://www.w3.org/Graphics/SVG/1.1/DTD/svg11.dtd">
<!-- Generated by graphviz version 2.38.0 (20140413.2041)
 -->
<!-- Title: nodeset14146 Pages: 1 -->
<svg width="1400pt" height="602pt"
 viewBox="0.00 0.00 1400.00 602.00" xmlns="http://www.w3.org/2000/svg" xmlns:xlink="http://www.w3.org/1999/xlink">
<g id="graph0" class="graph" transform="scale(1 1) rotate(0) translate(4 598)">
<title>nodeset14146</title>
<polygon fill="white" stroke="none" points="-4,4 -4,-598 1396,-598 1396,4 -4,4"/>
<!-- 368327 -->
<g id="node1" class="node"><title>368327</title>
<polygon fill="#ebf3ff" stroke="#6666cc" points="566,-580 372,-580 372,-502 566,-502 566,-580"/>
<text text-anchor="middle" x="469" y="-560.5" font-family="FreeSans" font-size="10.00">THE MURDERS OF THE JESUIT</text>
<text text-anchor="middle" x="469" y="-549.5" font-family="FreeSans" font-size="10.00">PRIESTS, THEIR COOK, AND HER</text>
<text text-anchor="middle" x="469" y="-538.5" font-family="FreeSans" font-size="10.00">DAUGHTER EARLY THIS MORNING AT</text>
<text text-anchor="middle" x="469" y="-527.5" font-family="FreeSans" font-size="10.00">THE CENTRAL AMERICAN</text>
<text text-anchor="middle" x="469" y="-516.5" font-family="FreeSans" font-size="10.00">UNIVERSITY, UCA.</text>
</g>
<!-- 368346 -->
<g id="node12" class="node"><title>368346</title>
<polygon fill="#e6ffe6" stroke="#66cc66" points="672,-452 569,-434 672,-416 775,-434 672,-452"/>
<text text-anchor="middle" x="672" y="-431.5" font-family="FreeSans" font-size="10.00">EvidenceToHypothesis</text>
</g>
<!-- 368327&#45;&gt;368346 -->
<g id="edge8" class="edge"><title>368327&#45;&gt;368346</title>
<path fill="none" stroke="black" d="M542.575,-501.944C575.317,-485.008 612.263,-465.898 638.275,-452.444"/>
<polygon fill="black" stroke="black" points="640.061,-455.461 647.335,-447.758 636.845,-449.243 640.061,-455.461"/>
</g>
<!-- 368347 -->
<g id="node13" class="node"><title>368347</title>
<polygon fill="#e6ffe6" stroke="#66cc66" points="279,-452 197.331,-434 279,-416 360.669,-434 279,-452"/>
<text text-anchor="middle" x="279" y="-431.5" font-family="FreeSans" font-size="10.00">Default Inference</text>
</g>
<!-- 368327&#45;&gt;368347 -->
<g id="edge10" class="edge"><title>368327&#45;&gt;368347</title>
<path fill="none" stroke="black" d="M400.137,-501.944C369.249,-484.875 334.364,-465.596 309.99,-452.126"/>
<polygon fill="black" stroke="black" points="311.639,-449.038 301.194,-447.265 308.253,-455.165 311.639,-449.038"/>
</g>
<!-- 368349 -->
<g id="node15" class="node"><title>368349</title>
<polygon fill="#e6ffe6" stroke="#66cc66" points="469,-452 387.331,-434 469,-416 550.669,-434 469,-452"/>
<text text-anchor="middle" x="469" y="-431.5" font-family="FreeSans" font-size="10.00">Default Inference</text>
</g>
<!-- 368327&#45;&gt;368349 -->
<g id="edge14" class="edge"><title>368327&#45;&gt;368349</title>
<path fill="none" stroke="black" d="M469,-501.796C469,-488.776 469,-474.487 469,-462.478"/>
<polygon fill="black" stroke="black" points="472.5,-462.193 469,-452.193 465.5,-462.193 472.5,-462.193"/>
</g>
<!-- 368329 -->
<g id="node2" class="node"><title>368329</title>
<polygon fill="#ebf3ff" stroke="#6666cc" points="179,-373 3,-373 3,-337 179,-337 179,-373"/>
<text text-anchor="middle" x="91" y="-352.5" font-family="FreeSans" font-size="10.00">WE ORDERED AN INVESTIGATION</text>
</g>
<!-- 368348 -->
<g id="node14" class="node"><title>368348</title>
<polygon fill="#e6ffe6" stroke="#66cc66" points="94,-294 12.3309,-276 94,-258 175.669,-276 94,-294"/>
<text text-anchor="middle" x="94" y="-273.5" font-family="FreeSans" font-size="10.00">Default Inference</text>
</g>
<!-- 368329&#45;&gt;368348 -->
<g id="edge12" class="edge"><title>368329&#45;&gt;368348</title>
<path fill="none" stroke="black" d="M91.6658,-336.911C92.0387,-327.341 92.5124,-315.183 92.9355,-304.323"/>
<polygon fill="black" stroke="black" points="96.444,-304.17 93.3361,-294.041 89.4493,-303.897 96.444,-304.17"/>
</g>
<!-- 368331 -->
<g id="node3" class="node"><title>368331</title>
<polygon fill="#ebf3ff" stroke="#6666cc" points="759,-380 585,-380 585,-330 759,-330 759,-380"/>
<text text-anchor="middle" x="672" y="-363.5" font-family="FreeSans" font-size="10.00">THESE SAVAGE INCIDENTS TAKE</text>
<text text-anchor="middle" x="672" y="-352.5" font-family="FreeSans" font-size="10.00">PLACE THAT ARE AIMED AT</text>
<text text-anchor="middle" x="672" y="-341.5" font-family="FreeSans" font-size="10.00">BLOCKING THIS PROCESS.</text>
</g>
<!-- 368333 -->
<g id="node4" class="node"><title>368333</title>
<polygon fill="#ebf3ff" stroke="#6666cc" points="359,-373 197,-373 197,-337 359,-337 359,-373"/>
<text text-anchor="middle" x="278" y="-358" font-family="FreeSans" font-size="10.00">WE HAVE MADE PRELIMINARY</text>
<text text-anchor="middle" x="278" y="-347" font-family="FreeSans" font-size="10.00">INVESTIGATIONS</text>
</g>
<!-- 368345 -->
<g id="node11" class="node"><title>368345</title>
<polygon fill="#e6ffe6" stroke="#66cc66" points="276,-294 194.331,-276 276,-258 357.669,-276 276,-294"/>
<text text-anchor="middle" x="276" y="-273.5" font-family="FreeSans" font-size="10.00">Default Inference</text>
</g>
<!-- 368333&#45;&gt;368345 -->
<g id="edge6" class="edge"><title>368333&#45;&gt;368345</title>
<path fill="none" stroke="black" d="M277.556,-336.911C277.308,-327.341 276.992,-315.183 276.71,-304.323"/>
<polygon fill="black" stroke="black" points="280.201,-303.947 276.443,-294.041 273.204,-304.129 280.201,-303.947"/>
</g>
<!-- 368335 -->
<g id="node5" class="node"><title>368335</title>
<polygon fill="#ebf3ff" stroke="#6666cc" points="565,-373 377,-373 377,-337 565,-337 565,-373"/>
<text text-anchor="middle" x="471" y="-358" font-family="FreeSans" font-size="10.00">THERE IS A POSSIBLE WITNESS TO</text>
<text text-anchor="middle" x="471" y="-347" font-family="FreeSans" font-size="10.00">THESE CRIMES</text>
</g>
<!-- 368337 -->
<g id="node6" class="node"><title>368337</title>
<polygon fill="#ebf3ff" stroke="#6666cc" points="279,-222 91,-222 91,-144 279,-144 279,-222"/>
<text text-anchor="middle" x="185" y="-202.5" font-family="FreeSans" font-size="10.00">THE ONLY THINGS WE HAVE FOUND</text>
<text text-anchor="middle" x="185" y="-191.5" font-family="FreeSans" font-size="10.00">ARE FINGERPRINTS THAT ARE</text>
<text text-anchor="middle" x="185" y="-180.5" font-family="FreeSans" font-size="10.00">BEING STUDIED AND SHELL</text>
<text text-anchor="middle" x="185" y="-169.5" font-family="FreeSans" font-size="10.00">CASINGS FROM AK&#45;47 AND M&#45;16</text>
<text text-anchor="middle" x="185" y="-158.5" font-family="FreeSans" font-size="10.00">RIFLES.</text>
</g>
<!-- 368343 -->
<g id="node9" class="node"><title>368343</title>
<polygon fill="#e6ffe6" stroke="#66cc66" points="95,-108 13.3309,-90 95,-72 176.669,-90 95,-108"/>
<text text-anchor="middle" x="95" y="-87.5" font-family="FreeSans" font-size="10.00">Default Inference</text>
</g>
<!-- 368337&#45;&gt;368343 -->
<g id="edge2" class="edge"><title>368337&#45;&gt;368343</title>
<path fill="none" stroke="black" d="M147.353,-143.935C136.816,-133.281 125.727,-122.068 116.48,-112.719"/>
<polygon fill="black" stroke="black" points="118.719,-110.005 109.199,-105.356 113.742,-114.928 118.719,-110.005"/>
</g>
<!-- 368344 -->
<g id="node10" class="node"><title>368344</title>
<polygon fill="#e6ffe6" stroke="#66cc66" points="279,-108 197.331,-90 279,-72 360.669,-90 279,-108"/>
<text text-anchor="middle" x="279" y="-87.5" font-family="FreeSans" font-size="10.00">Default Inference</text>
</g>
<!-- 368337&#45;&gt;368344 -->
<g id="edge4" class="edge"><title>368337&#45;&gt;368344</title>
<path fill="none" stroke="black" d="M224.32,-143.935C235.594,-133.021 247.474,-121.52 257.27,-112.037"/>
<polygon fill="black" stroke="black" points="259.877,-114.384 264.628,-104.914 255.008,-109.355 259.877,-114.384"/>
</g>
<!-- 368339 -->
<g id="node7" class="node"><title>368339</title>
<polygon fill="#ebf3ff" stroke="#6666cc" points="169,-36 17,-36 17,-0 169,-0 169,-36"/>
<text text-anchor="middle" x="93" y="-21" font-family="FreeSans" font-size="10.00">WE WILL SUBMIT THEM FOR</text>
<text text-anchor="middle" x="93" y="-10" font-family="FreeSans" font-size="10.00">BALLISTIC TESTS.</text>
</g>
<!-- 368341 -->
<g id="node8" class="node"><title>368341</title>
<polygon fill="#ebf3ff" stroke="#6666cc" points="375,-36 187,-36 187,-0 375,-0 375,-36"/>
<text text-anchor="middle" x="281" y="-21" font-family="FreeSans" font-size="10.00">WE WILL ALSO CONDUCT FORENSIC</text>
<text text-anchor="middle" x="281" y="-10" font-family="FreeSans" font-size="10.00">TESTS</text>
</g>
<!-- 368343&#45;&gt;368339 -->
<g id="edge1" class="edge"><title>368343&#45;&gt;368339</title>
<path fill="none" stroke="black" d="M94.5159,-72.055C94.2956,-64.3456 94.0293,-55.0269 93.7818,-46.3642"/>
<polygon fill="black" stroke="black" points="97.2778,-46.1712 93.4936,-36.2753 90.2807,-46.3712 97.2778,-46.1712"/>
</g>
<!-- 368344&#45;&gt;368341 -->
<g id="edge3" class="edge"><title>368344&#45;&gt;368341</title>
<path fill="none" stroke="black" d="M279.484,-72.055C279.704,-64.3456 279.971,-55.0269 280.218,-46.3642"/>
<polygon fill="black" stroke="black" points="283.719,-46.3712 280.506,-36.2753 276.722,-46.1712 283.719,-46.3712"/>
</g>
<!-- 368345&#45;&gt;368337 -->
<g id="edge5" class="edge"><title>368345&#45;&gt;368337</title>
<path fill="none" stroke="black" d="M261.781,-260.781C253.171,-252.171 241.664,-240.664 230.183,-229.183"/>
<polygon fill="black" stroke="black" points="232.611,-226.661 223.065,-222.065 227.661,-231.611 232.611,-226.661"/>
</g>
<!-- 368346&#45;&gt;368331 -->
<g id="edge7" class="edge"><title>368346&#45;&gt;368331</title>
<path fill="none" stroke="black" d="M672,-415.911C672,-408.332 672,-399.13 672,-390.235"/>
<polygon fill="black" stroke="black" points="675.5,-390.05 672,-380.05 668.5,-390.05 675.5,-390.05"/>
</g>
<!-- 368347&#45;&gt;368329 -->
<g id="edge9" class="edge"><title>368347&#45;&gt;368329</title>
<path fill="none" stroke="black" d="M251.663,-421.804C223.086,-410.099 177.572,-391.458 142.271,-376.999"/>
<polygon fill="black" stroke="black" points="143.188,-373.593 132.608,-373.041 140.535,-380.07 143.188,-373.593"/>
</g>
<!-- 368348&#45;&gt;368337 -->
<g id="edge11" class="edge"><title>368348&#45;&gt;368337</title>
<path fill="none" stroke="black" d="M108.219,-260.781C116.829,-252.171 128.336,-240.664 139.817,-229.183"/>
<polygon fill="black" stroke="black" points="142.339,-231.611 146.935,-222.065 137.389,-226.661 142.339,-231.611"/>
</g>
<!-- 368349&#45;&gt;368335 -->
<g id="edge13" class="edge"><title>368349&#45;&gt;368335</title>
<path fill="none" stroke="black" d="M469.444,-415.911C469.692,-406.341 470.008,-394.183 470.29,-383.323"/>
<polygon fill="black" stroke="black" points="473.796,-383.129 470.557,-373.041 466.799,-382.947 473.796,-383.129"/>
</g>
<!-- 368350 -->
<g id="node16" class="node"><title>368350</title>
<polygon fill="#ebf3ff" stroke="#6666cc" points="774,-587 584,-587 584,-495 774,-495 774,-587"/>
<text text-anchor="middle" x="679" y="-566" font-family="FreeSans" font-size="10.00">INSIDE THE BUILDING THERE WAS</text>
<text text-anchor="middle" x="679" y="-555" font-family="FreeSans" font-size="10.00">A ROOM OR LIBRARY WITH VIDEO</text>
<text text-anchor="middle" x="679" y="-544" font-family="FreeSans" font-size="10.00">CASSETTES. IT WAS LIKE A</text>
<text text-anchor="middle" x="679" y="-533" font-family="FreeSans" font-size="10.00">STUDIO. THIS ROOM LOOKED LIKE</text>
<text text-anchor="middle" x="679" y="-522" font-family="FreeSans" font-size="10.00">IT HAD BEEN BURNED AFTER BEING</text>
<text text-anchor="middle" x="679" y="-511" font-family="FreeSans" font-size="10.00">RANSACKED</text>
</g>
<!-- 368352 -->
<g id="node17" class="node"><title>368352</title>
<polygon fill="#ebf3ff" stroke="#6666cc" points="972,-559 792,-559 792,-523 972,-523 972,-559"/>
<text text-anchor="middle" x="882" y="-544" font-family="FreeSans" font-size="10.00">THERE WERE SEVERAL PERSONS</text>
<text text-anchor="middle" x="882" y="-533" font-family="FreeSans" font-size="10.00">WEARING UNIFORMS</text>
</g>
<!-- 368354 -->
<g id="node18" class="node"><title>368354</title>
<polygon fill="#ebf3ff" stroke="#6666cc" points="1186,-566 990,-566 990,-516 1186,-516 1186,-566"/>
<text text-anchor="middle" x="1088" y="-549.5" font-family="FreeSans" font-size="10.00">MANY PEOPLE WHO DO NOT BELONG</text>
<text text-anchor="middle" x="1088" y="-538.5" font-family="FreeSans" font-size="10.00">TO THE ARMED FORCES ARE</text>
<text text-anchor="middle" x="1088" y="-527.5" font-family="FreeSans" font-size="10.00">WEARING UNIFORMS</text>
</g>
<!-- 368356 -->
<g id="node19" class="node"><title>368356</title>
<polygon fill="#ebf3ff" stroke="#6666cc" points="1392,-594 1204,-594 1204,-488 1392,-488 1392,-594"/>
<text text-anchor="middle" x="1298" y="-571.5" font-family="FreeSans" font-size="10.00">ONE CANNOT SAY ONE THING OR</text>
<text text-anchor="middle" x="1298" y="-560.5" font-family="FreeSans" font-size="10.00">ANOTHER, BUT I DO THINK THIS</text>
<text text-anchor="middle" x="1298" y="-549.5" font-family="FreeSans" font-size="10.00">MUST BE INVESTIGATED. IF</text>
<text text-anchor="middle" x="1298" y="-538.5" font-family="FreeSans" font-size="10.00">MEMBERS OF THE ARMED FORCES</text>
<text text-anchor="middle" x="1298" y="-527.5" font-family="FreeSans" font-size="10.00">ARE FOUND TO BE INVOLVED, THEY</text>
<text text-anchor="middle" x="1298" y="-516.5" font-family="FreeSans" font-size="10.00">WILL FEEL THE FULL WEIGHT OF</text>
<text text-anchor="middle" x="1298" y="-505.5" font-family="FreeSans" font-size="10.00">THE LAW.</text>
</g>
<!-- 368358 -->
<g id="node20" class="node"><title>368358</title>
<polygon fill="#ebf3ff" stroke="#6666cc" points="182,-573 0,-573 0,-509 182,-509 182,-573"/>
<text text-anchor="middle" x="91" y="-555" font-family="FreeSans" font-size="10.00">WE WOULD LIKE TO SAY BEFORE</text>
<text text-anchor="middle" x="91" y="-544" font-family="FreeSans" font-size="10.00">THE INTERNATIONAL PRESS THAT</text>
<text text-anchor="middle" x="91" y="-533" font-family="FreeSans" font-size="10.00">WE CONDEMN IN THE STRONGEST</text>
<text text-anchor="middle" x="91" y="-522" font-family="FreeSans" font-size="10.00">TERMS THE MURDERS</text>
</g>
<!-- 368360 -->
<g id="node21" class="node"><title>368360</title>
<polygon fill="#e6ffe6" stroke="#66cc66" points="91,-452 9.33087,-434 91,-416 172.669,-434 91,-452"/>
<text text-anchor="middle" x="91" y="-431.5" font-family="FreeSans" font-size="10.00">Default Inference</text>
</g>
<!-- 368358&#45;&gt;368360 -->
<g id="edge16" class="edge"><title>368358&#45;&gt;368360</title>
<path fill="none" stroke="black" d="M91,-508.781C91,-494.04 91,-476.605 91,-462.386"/>
<polygon fill="black" stroke="black" points="94.5001,-462.237 91,-452.237 87.5001,-462.237 94.5001,-462.237"/>
</g>
<!-- 368360&#45;&gt;368329 -->
<g id="edge15" class="edge"><title>368360&#45;&gt;368329</title>
<path fill="none" stroke="black" d="M91,-415.911C91,-406.341 91,-394.183 91,-383.323"/>
<polygon fill="black" stroke="black" points="94.5001,-383.041 91,-373.041 87.5001,-383.041 94.5001,-383.041"/>
</g>
</g>
</svg>
