<?xml version="1.0" encoding="UTF-8" standalone="no"?>
<!DOCTYPE svg PUBLIC "-//W3C//DTD SVG 1.1//EN"
 "http://www.w3.org/Graphics/SVG/1.1/DTD/svg11.dtd">
<!-- Generated by graphviz version 2.38.0 (20140413.2041)
 -->
<!-- Title: nodeset14151 Pages: 1 -->
<svg width="1561pt" height="542pt"
 viewBox="0.00 0.00 1560.58 542.00" xmlns="http://www.w3.org/2000/svg" xmlns:xlink="http://www.w3.org/1999/xlink">
<g id="graph0" class="graph" transform="scale(1 1) rotate(0) translate(4 538)">
<title>nodeset14151</title>
<polygon fill="white" stroke="none" points="-4,4 -4,-538 1556.58,-538 1556.58,4 -4,4"/>
<!-- 368411 -->
<g id="node1" class="node"><title>368411</title>
<polygon fill="#ebf3ff" stroke="#6666cc" points="285.585,-534 95.5845,-534 95.5845,-386 285.585,-386 285.585,-534"/>
<text text-anchor="middle" x="190.585" y="-507" font-family="FreeSans" font-size="10.00">WHEN ANSWERING A QUESTION ON</text>
<text text-anchor="middle" x="190.585" y="-496" font-family="FreeSans" font-size="10.00">THE POSSIBILITY THAT THE SIX</text>
<text text-anchor="middle" x="190.585" y="-485" font-family="FreeSans" font-size="10.00">JESUITS AND TWO OTHER PERSONS</text>
<text text-anchor="middle" x="190.585" y="-474" font-family="FreeSans" font-size="10.00">COULD HAVE BEEN MURDERED BY</text>
<text text-anchor="middle" x="190.585" y="-463" font-family="FreeSans" font-size="10.00">THE MILITARY, SALVADORAN</text>
<text text-anchor="middle" x="190.585" y="-452" font-family="FreeSans" font-size="10.00">PRESIDENT ALFREDO CRISTIANI</text>
<text text-anchor="middle" x="190.585" y="-441" font-family="FreeSans" font-size="10.00">SAID TODAY THAT &quot;IF THE ARMED</text>
<text text-anchor="middle" x="190.585" y="-430" font-family="FreeSans" font-size="10.00">FORCES PEOPLE DID IT, THE</text>
<text text-anchor="middle" x="190.585" y="-419" font-family="FreeSans" font-size="10.00">WEIGHT OF THE LAW WILL FALL</text>
<text text-anchor="middle" x="190.585" y="-408" font-family="FreeSans" font-size="10.00">ALSO ON THEM.&quot;</text>
</g>
<!-- 368444 -->
<g id="node12" class="node"><title>368444</title>
<polygon fill="#e6ffe6" stroke="#66cc66" points="81.5845,-243 -0.0846096,-225 81.5845,-207 163.254,-225 81.5845,-243"/>
<text text-anchor="middle" x="81.5845" y="-222.5" font-family="FreeSans" font-size="10.00">Default Inference</text>
</g>
<!-- 368411&#45;&gt;368444 -->
<g id="edge2" class="edge"><title>368411&#45;&gt;368444</title>
<path fill="none" stroke="black" d="M156.395,-385.917C134.781,-339.715 108.194,-282.881 93.2405,-250.916"/>
<polygon fill="black" stroke="black" points="96.3992,-249.408 88.9915,-241.833 90.0587,-252.374 96.3992,-249.408"/>
</g>
<!-- 368445 -->
<g id="node13" class="node"><title>368445</title>
<polygon fill="#e6ffe6" stroke="#66cc66" points="233.585,-350 151.915,-332 233.585,-314 315.254,-332 233.585,-350"/>
<text text-anchor="middle" x="233.585" y="-329.5" font-family="FreeSans" font-size="10.00">Default Inference</text>
</g>
<!-- 368411&#45;&gt;368445 -->
<g id="edge4" class="edge"><title>368411&#45;&gt;368445</title>
<path fill="none" stroke="black" d="M215.598,-385.705C218.923,-375.96 222.134,-366.553 224.899,-358.451"/>
<polygon fill="black" stroke="black" points="228.221,-359.553 228.139,-348.958 221.596,-357.292 228.221,-359.553"/>
</g>
<!-- 368413 -->
<g id="node2" class="node"><title>368413</title>
<polygon fill="#ebf3ff" stroke="#6666cc" points="469.585,-50 279.585,-50 279.585,-14 469.585,-14 469.585,-50"/>
<text text-anchor="middle" x="374.585" y="-29.5" font-family="FreeSans" font-size="10.00">THE ARMED FORCES PEOPLE DID IT</text>
</g>
<!-- 368416 -->
<g id="node3" class="node"><title>368416</title>
<polygon fill="#ebf3ff" stroke="#6666cc" points="369.585,-243 181.585,-243 181.585,-207 369.585,-207 369.585,-243"/>
<text text-anchor="middle" x="275.585" y="-228" font-family="FreeSans" font-size="10.00">THE MULTIPLE MURDER THAT TOOK</text>
<text text-anchor="middle" x="275.585" y="-217" font-family="FreeSans" font-size="10.00">PLACE EARLY THIS MORNING</text>
</g>
<!-- 368446 -->
<g id="node14" class="node"><title>368446</title>
<polygon fill="#e6ffe6" stroke="#66cc66" points="281.585,-136 199.915,-118 281.585,-100 363.254,-118 281.585,-136"/>
<text text-anchor="middle" x="281.585" y="-115.5" font-family="FreeSans" font-size="10.00">Default Inference</text>
</g>
<!-- 368416&#45;&gt;368446 -->
<g id="edge6" class="edge"><title>368416&#45;&gt;368446</title>
<path fill="none" stroke="black" d="M276.575,-206.661C277.515,-190.225 278.94,-165.278 280.031,-146.194"/>
<polygon fill="black" stroke="black" points="283.536,-146.199 280.612,-136.016 276.547,-145.8 283.536,-146.199"/>
</g>
<!-- 368420 -->
<g id="node4" class="node"><title>368420</title>
<polygon fill="#ebf3ff" stroke="#6666cc" points="559.585,-250 387.585,-250 387.585,-200 559.585,-200 559.585,-250"/>
<text text-anchor="middle" x="473.585" y="-233.5" font-family="FreeSans" font-size="10.00">TOO EARLY &quot;TO GIVE ANY</text>
<text text-anchor="middle" x="473.585" y="-222.5" font-family="FreeSans" font-size="10.00">OPINION&quot; ON WHO COULD HAVE</text>
<text text-anchor="middle" x="473.585" y="-211.5" font-family="FreeSans" font-size="10.00">COMMITTED THE MURDERS</text>
</g>
<!-- 368447 -->
<g id="node15" class="node"><title>368447</title>
<polygon fill="#ffe6e6" stroke="#cc6666" points="467.585,-136 393.4,-118 467.585,-100 541.769,-118 467.585,-136"/>
<text text-anchor="middle" x="467.585" y="-115.5" font-family="FreeSans" font-size="10.00">Default Conflict</text>
</g>
<!-- 368420&#45;&gt;368447 -->
<g id="edge8" class="edge"><title>368420&#45;&gt;368447</title>
<path fill="none" stroke="black" d="M472.208,-199.911C471.288,-183.819 470.078,-162.631 469.126,-145.974"/>
<polygon fill="black" stroke="black" points="472.608,-145.565 468.543,-135.781 465.62,-145.964 472.608,-145.565"/>
</g>
<!-- 368423 -->
<g id="node5" class="node"><title>368423</title>
<polygon fill="#ebf3ff" stroke="#6666cc" points="1156.58,-485 978.585,-485 978.585,-435 1156.58,-435 1156.58,-485"/>
<text text-anchor="middle" x="1067.58" y="-468.5" font-family="FreeSans" font-size="10.00">THE ARMED FORCES AS WELL AS</text>
<text text-anchor="middle" x="1067.58" y="-457.5" font-family="FreeSans" font-size="10.00">THE GUERRILLA GROUPS MOVE</text>
<text text-anchor="middle" x="1067.58" y="-446.5" font-family="FreeSans" font-size="10.00">DURING THE CURFEW HOURS</text>
</g>
<!-- 368425 -->
<g id="node6" class="node"><title>368425</title>
<polygon fill="#ebf3ff" stroke="#6666cc" points="661.585,-527 455.585,-527 455.585,-393 661.585,-393 661.585,-527"/>
<text text-anchor="middle" x="558.585" y="-501.5" font-family="FreeSans" font-size="10.00">HE EMPHASIZED THAT IT IS TOO</text>
<text text-anchor="middle" x="558.585" y="-490.5" font-family="FreeSans" font-size="10.00">EARLY &quot;TO GIVE ANY OPINION&quot;</text>
<text text-anchor="middle" x="558.585" y="-479.5" font-family="FreeSans" font-size="10.00">ON WHO COULD HAVE COMMITTED</text>
<text text-anchor="middle" x="558.585" y="-468.5" font-family="FreeSans" font-size="10.00">THE MURDERS, POINTING OUT THAT</text>
<text text-anchor="middle" x="558.585" y="-457.5" font-family="FreeSans" font-size="10.00">THE FACT THE MEN WHO DID IT</text>
<text text-anchor="middle" x="558.585" y="-446.5" font-family="FreeSans" font-size="10.00">WERE WEARING UNIFORMS AND WERE</text>
<text text-anchor="middle" x="558.585" y="-435.5" font-family="FreeSans" font-size="10.00">MOVING AT NIGHT DURING THE</text>
<text text-anchor="middle" x="558.585" y="-424.5" font-family="FreeSans" font-size="10.00">STRICT CURFEW IN THE CITY &quot;IS</text>
<text text-anchor="middle" x="558.585" y="-413.5" font-family="FreeSans" font-size="10.00">NOT CONCLUSIVE.&quot;</text>
</g>
<!-- 368448 -->
<g id="node16" class="node"><title>368448</title>
<polygon fill="#e6ffe6" stroke="#66cc66" points="475.585,-350 393.915,-332 475.585,-314 557.254,-332 475.585,-350"/>
<text text-anchor="middle" x="475.585" y="-329.5" font-family="FreeSans" font-size="10.00">Default Inference</text>
</g>
<!-- 368425&#45;&gt;368448 -->
<g id="edge10" class="edge"><title>368425&#45;&gt;368448</title>
<path fill="none" stroke="black" d="M514.897,-392.679C506.318,-379.656 497.865,-366.823 491.008,-356.414"/>
<polygon fill="black" stroke="black" points="493.854,-354.372 485.43,-347.947 488.009,-358.223 493.854,-354.372"/>
</g>
<!-- 368454 -->
<g id="node21" class="node"><title>368454</title>
<polygon fill="#e6ffe6" stroke="#66cc66" points="659.585,-350 577.915,-332 659.585,-314 741.254,-332 659.585,-350"/>
<text text-anchor="middle" x="659.585" y="-329.5" font-family="FreeSans" font-size="10.00">Default Inference</text>
</g>
<!-- 368425&#45;&gt;368454 -->
<g id="edge18" class="edge"><title>368425&#45;&gt;368454</title>
<path fill="none" stroke="black" d="M611.747,-392.679C622.546,-379.206 633.183,-365.936 641.674,-355.343"/>
<polygon fill="black" stroke="black" points="644.463,-357.461 647.986,-347.469 639.001,-353.083 644.463,-357.461"/>
</g>
<!-- 368431 -->
<g id="node7" class="node"><title>368431</title>
<polygon fill="#ebf3ff" stroke="#6666cc" points="1370.58,-492 1174.58,-492 1174.58,-428 1370.58,-428 1370.58,-492"/>
<text text-anchor="middle" x="1272.58" y="-474" font-family="FreeSans" font-size="10.00">A POSSIBLE WITNESS THAT HAS</text>
<text text-anchor="middle" x="1272.58" y="-463" font-family="FreeSans" font-size="10.00">NOT BEEN INTERROGATED BY THOSE</text>
<text text-anchor="middle" x="1272.58" y="-452" font-family="FreeSans" font-size="10.00">WHO ARE CARRYING OUT THE</text>
<text text-anchor="middle" x="1272.58" y="-441" font-family="FreeSans" font-size="10.00">INVESTIGATION</text>
</g>
<!-- 368433 -->
<g id="node8" class="node"><title>368433</title>
<polygon fill="#ebf3ff" stroke="#6666cc" points="1552.58,-485 1388.58,-485 1388.58,-435 1552.58,-435 1552.58,-485"/>
<text text-anchor="middle" x="1470.58" y="-468.5" font-family="FreeSans" font-size="10.00">FINGERPRINTS AND EMPTY</text>
<text text-anchor="middle" x="1470.58" y="-457.5" font-family="FreeSans" font-size="10.00">CARTRIDGES OF BULLETS FOR</text>
<text text-anchor="middle" x="1470.58" y="-446.5" font-family="FreeSans" font-size="10.00">AK&#45;47S AND M&#45;16S.</text>
</g>
<!-- 368435 -->
<g id="node9" class="node"><title>368435</title>
<polygon fill="#ebf3ff" stroke="#6666cc" points="960.585,-513 762.585,-513 762.585,-407 960.585,-407 960.585,-513"/>
<text text-anchor="middle" x="861.585" y="-490.5" font-family="FreeSans" font-size="10.00">CRISTIANI DISAVOWED VERSIONS</text>
<text text-anchor="middle" x="861.585" y="-479.5" font-family="FreeSans" font-size="10.00">REPORTED DURING THE DAY BY THE</text>
<text text-anchor="middle" x="861.585" y="-468.5" font-family="FreeSans" font-size="10.00">GOVERNMENT RADIO NETWORK THAT</text>
<text text-anchor="middle" x="861.585" y="-457.5" font-family="FreeSans" font-size="10.00">CLAIM THE FARABUNDO MARTI</text>
<text text-anchor="middle" x="861.585" y="-446.5" font-family="FreeSans" font-size="10.00">NATIONAL LIBERATION FRONT</text>
<text text-anchor="middle" x="861.585" y="-435.5" font-family="FreeSans" font-size="10.00">(FMLN) GUERRILLAS COMMITTED</text>
<text text-anchor="middle" x="861.585" y="-424.5" font-family="FreeSans" font-size="10.00">THE MURDER.</text>
</g>
<!-- 368450 -->
<g id="node18" class="node"><title>368450</title>
<polygon fill="#ffe6e6" stroke="#cc6666" points="861.585,-350 787.4,-332 861.585,-314 935.769,-332 861.585,-350"/>
<text text-anchor="middle" x="861.585" y="-329.5" font-family="FreeSans" font-size="10.00">Default Conflict</text>
</g>
<!-- 368435&#45;&gt;368450 -->
<g id="edge14" class="edge"><title>368435&#45;&gt;368450</title>
<path fill="none" stroke="black" d="M861.585,-406.659C861.585,-390.761 861.585,-373.929 861.585,-360.375"/>
<polygon fill="black" stroke="black" points="865.085,-360.287 861.585,-350.287 858.085,-360.288 865.085,-360.287"/>
</g>
<!-- 368437 -->
<g id="node10" class="node"><title>368437</title>
<polygon fill="#ebf3ff" stroke="#6666cc" points="953.585,-64 769.585,-64 769.585,-0 953.585,-0 953.585,-64"/>
<text text-anchor="middle" x="861.585" y="-46" font-family="FreeSans" font-size="10.00">THE FARABUNDO MARTI NATIONAL</text>
<text text-anchor="middle" x="861.585" y="-35" font-family="FreeSans" font-size="10.00">LIBERATION FRONT (FMLN)</text>
<text text-anchor="middle" x="861.585" y="-24" font-family="FreeSans" font-size="10.00">GUERRILLAS COMMITTED THE</text>
<text text-anchor="middle" x="861.585" y="-13" font-family="FreeSans" font-size="10.00">MURDER</text>
</g>
<!-- 368439 -->
<g id="node11" class="node"><title>368439</title>
<polygon fill="#ebf3ff" stroke="#6666cc" points="955.585,-278 767.585,-278 767.585,-172 955.585,-172 955.585,-278"/>
<text text-anchor="middle" x="861.585" y="-255.5" font-family="FreeSans" font-size="10.00">VERSIONS REPORTED DURING THE</text>
<text text-anchor="middle" x="861.585" y="-244.5" font-family="FreeSans" font-size="10.00">DAY BY THE GOVERNMENT RADIO</text>
<text text-anchor="middle" x="861.585" y="-233.5" font-family="FreeSans" font-size="10.00">NETWORK THAT CLAIM THE</text>
<text text-anchor="middle" x="861.585" y="-222.5" font-family="FreeSans" font-size="10.00">FARABUNDO MARTI NATIONAL</text>
<text text-anchor="middle" x="861.585" y="-211.5" font-family="FreeSans" font-size="10.00">LIBERATION FRONT (FMLN)</text>
<text text-anchor="middle" x="861.585" y="-200.5" font-family="FreeSans" font-size="10.00">GUERRILLAS COMMITTED THE</text>
<text text-anchor="middle" x="861.585" y="-189.5" font-family="FreeSans" font-size="10.00">MURDER.</text>
</g>
<!-- 368449 -->
<g id="node17" class="node"><title>368449</title>
<polygon fill="#e6ffe6" stroke="#66cc66" points="861.585,-136 779.915,-118 861.585,-100 943.254,-118 861.585,-136"/>
<text text-anchor="middle" x="861.585" y="-115.5" font-family="FreeSans" font-size="10.00">Default Inference</text>
</g>
<!-- 368439&#45;&gt;368449 -->
<g id="edge12" class="edge"><title>368439&#45;&gt;368449</title>
<path fill="none" stroke="black" d="M861.585,-171.808C861.585,-163.132 861.585,-154.445 861.585,-146.694"/>
<polygon fill="black" stroke="black" points="865.085,-146.46 861.585,-136.46 858.085,-146.46 865.085,-146.46"/>
</g>
<!-- 368451 -->
<g id="node19" class="node"><title>368451</title>
<polygon fill="#ffe6e6" stroke="#cc6666" points="663.585,-136 589.4,-118 663.585,-100 737.769,-118 663.585,-136"/>
<text text-anchor="middle" x="663.585" y="-115.5" font-family="FreeSans" font-size="10.00">Default Conflict</text>
</g>
<!-- 368439&#45;&gt;368451 -->
<g id="edge16" class="edge"><title>368439&#45;&gt;368451</title>
<path fill="none" stroke="black" d="M767.513,-174.114C741.155,-160.136 714.33,-145.91 694.536,-135.414"/>
<polygon fill="black" stroke="black" points="696.165,-132.316 685.691,-130.723 692.886,-138.5 696.165,-132.316"/>
</g>
<!-- 368444&#45;&gt;368413 -->
<g id="edge1" class="edge"><title>368444&#45;&gt;368413</title>
<path fill="none" stroke="black" d="M91.1535,-208.836C108.164,-183.025 146.094,-130.402 190.585,-100 221.369,-78.9643 259.547,-63.6555 293.134,-53.0275"/>
<polygon fill="black" stroke="black" points="294.404,-56.2989 302.935,-50.016 292.348,-49.6077 294.404,-56.2989"/>
</g>
<!-- 368445&#45;&gt;368416 -->
<g id="edge3" class="edge"><title>368445&#45;&gt;368416</title>
<path fill="none" stroke="black" d="M239.963,-315.053C246.599,-298.464 257.1,-272.21 264.985,-252.498"/>
<polygon fill="black" stroke="black" points="268.262,-253.731 268.726,-243.146 261.763,-251.131 268.262,-253.731"/>
</g>
<!-- 368446&#45;&gt;368413 -->
<g id="edge5" class="edge"><title>368446&#45;&gt;368413</title>
<path fill="none" stroke="black" d="M296.942,-103.129C310.774,-90.6349 331.412,-71.9943 347.934,-57.0712"/>
<polygon fill="black" stroke="black" points="350.591,-59.3875 355.667,-50.0872 345.899,-54.1928 350.591,-59.3875"/>
</g>
<!-- 368447&#45;&gt;368413 -->
<g id="edge7" class="edge"><title>368447&#45;&gt;368413</title>
<path fill="none" stroke="black" d="M452.642,-103.504C438.875,-91.0692 418.121,-72.323 401.472,-57.2858"/>
<polygon fill="black" stroke="black" points="403.445,-54.3513 393.678,-50.2458 398.753,-59.5461 403.445,-54.3513"/>
</g>
<!-- 368448&#45;&gt;368420 -->
<g id="edge9" class="edge"><title>368448&#45;&gt;368420</title>
<path fill="none" stroke="black" d="M475.254,-313.661C474.978,-299.151 474.575,-278.009 474.234,-260.124"/>
<polygon fill="black" stroke="black" points="477.732,-259.975 474.043,-250.044 470.734,-260.109 477.732,-259.975"/>
</g>
<!-- 368449&#45;&gt;368437 -->
<g id="edge11" class="edge"><title>368449&#45;&gt;368437</title>
<path fill="none" stroke="black" d="M861.585,-99.5951C861.585,-92.2728 861.585,-83.4104 861.585,-74.5733"/>
<polygon fill="black" stroke="black" points="865.085,-74.3046 861.585,-64.3046 858.085,-74.3047 865.085,-74.3046"/>
</g>
<!-- 368450&#45;&gt;368439 -->
<g id="edge13" class="edge"><title>368450&#45;&gt;368439</title>
<path fill="none" stroke="black" d="M861.585,-313.661C861.585,-306.475 861.585,-297.662 861.585,-288.423"/>
<polygon fill="black" stroke="black" points="865.085,-288.288 861.585,-278.289 858.085,-288.289 865.085,-288.288"/>
</g>
<!-- 368451&#45;&gt;368413 -->
<g id="edge15" class="edge"><title>368451&#45;&gt;368413</title>
<path fill="none" stroke="black" d="M631.552,-107.69C586.308,-94.5391 502.567,-70.199 442.982,-52.8803"/>
<polygon fill="black" stroke="black" points="443.846,-49.4866 433.267,-50.0564 441.892,-56.2084 443.846,-49.4866"/>
</g>
<!-- 368452 -->
<g id="node20" class="node"><title>368452</title>
<polygon fill="#ebf3ff" stroke="#6666cc" points="749.585,-257 577.585,-257 577.585,-193 749.585,-193 749.585,-257"/>
<text text-anchor="middle" x="663.585" y="-239" font-family="FreeSans" font-size="10.00">THE MEN WHO DID IT WERE</text>
<text text-anchor="middle" x="663.585" y="-228" font-family="FreeSans" font-size="10.00">WEARING UNIFORMS AND WERE</text>
<text text-anchor="middle" x="663.585" y="-217" font-family="FreeSans" font-size="10.00">MOVING AT NIGHT DURING THE</text>
<text text-anchor="middle" x="663.585" y="-206" font-family="FreeSans" font-size="10.00">STRICT CURFEW</text>
</g>
<!-- 368454&#45;&gt;368452 -->
<g id="edge17" class="edge"><title>368454&#45;&gt;368452</title>
<path fill="none" stroke="black" d="M660.227,-314.13C660.705,-301.576 661.38,-283.875 661.999,-267.627"/>
<polygon fill="black" stroke="black" points="665.512,-267.354 662.395,-257.228 658.517,-267.088 665.512,-267.354"/>
</g>
</g>
</svg>
