<?xml version="1.0" encoding="UTF-8" standalone="no"?>
<!DOCTYPE svg PUBLIC "-//W3C//DTD SVG 1.1//EN"
 "http://www.w3.org/Graphics/SVG/1.1/DTD/svg11.dtd">
<!-- Generated by graphviz version 2.38.0 (20140413.2041)
 -->
<!-- Title: nodeset14199 Pages: 1 -->
<svg width="682pt" height="474pt"
 viewBox="0.00 0.00 681.53 474.00" xmlns="http://www.w3.org/2000/svg" xmlns:xlink="http://www.w3.org/1999/xlink">
<g id="graph0" class="graph" transform="scale(1 1) rotate(0) translate(4 470)">
<title>nodeset14199</title>
<polygon fill="white" stroke="none" points="-4,4 -4,-470 677.53,-470 677.53,4 -4,4"/>
<!-- 370990 -->
<g id="node1" class="node"><title>370990</title>
<polygon fill="#ebf3ff" stroke="#6666cc" points="649.53,-459 453.53,-459 453.53,-381 649.53,-381 649.53,-459"/>
<text text-anchor="middle" x="551.53" y="-439.5" font-family="FreeSans" font-size="10.00">TST1&#45;MUC3&#45;0080: LIBERAL</text>
<text text-anchor="middle" x="551.53" y="-428.5" font-family="FreeSans" font-size="10.00">SENATOR FEDERICO ESTRADA VELEZ</text>
<text text-anchor="middle" x="551.53" y="-417.5" font-family="FreeSans" font-size="10.00">WAS KIDNAPPED ON 3 APRIL AT</text>
<text text-anchor="middle" x="551.53" y="-406.5" font-family="FreeSans" font-size="10.00">THE CORNER OF 60TH AND 48TH</text>
<text text-anchor="middle" x="551.53" y="-395.5" font-family="FreeSans" font-size="10.00">STREETS IN WESTERN MEDELLIN</text>
</g>
<!-- 371002 -->
<g id="node9" class="node"><title>371002</title>
<polygon fill="#e6ffe6" stroke="#66cc66" points="122.53,-338 19.5301,-320 122.53,-302 225.53,-320 122.53,-338"/>
<text text-anchor="middle" x="122.53" y="-317.5" font-family="FreeSans" font-size="10.00">EvidenceToHypothesis</text>
</g>
<!-- 370990&#45;&gt;371002 -->
<g id="edge4" class="edge"><title>370990&#45;&gt;371002</title>
<path fill="none" stroke="black" d="M466.024,-380.976C458.826,-378.408 451.598,-376.037 444.53,-374 420.082,-366.953 271.393,-343.699 184.864,-330.453"/>
<polygon fill="black" stroke="black" points="185.304,-326.98 174.89,-328.928 184.246,-333.899 185.304,-326.98"/>
</g>
<!-- 371003 -->
<g id="node10" class="node"><title>371003</title>
<polygon fill="#e6ffe6" stroke="#66cc66" points="346.53,-338 243.53,-320 346.53,-302 449.53,-320 346.53,-338"/>
<text text-anchor="middle" x="346.53" y="-317.5" font-family="FreeSans" font-size="10.00">EvidenceToHypothesis</text>
</g>
<!-- 370990&#45;&gt;371003 -->
<g id="edge8" class="edge"><title>370990&#45;&gt;371003</title>
<path fill="none" stroke="black" d="M471.978,-380.97C440.979,-366.151 407.027,-349.92 382.271,-338.086"/>
<polygon fill="black" stroke="black" points="383.459,-334.774 372.927,-333.619 380.439,-341.09 383.459,-334.774"/>
</g>
<!-- 371004 -->
<g id="node11" class="node"><title>371004</title>
<polygon fill="#e6ffe6" stroke="#66cc66" points="570.53,-338 467.53,-320 570.53,-302 673.53,-320 570.53,-338"/>
<text text-anchor="middle" x="570.53" y="-317.5" font-family="FreeSans" font-size="10.00">EvidenceToHypothesis</text>
</g>
<!-- 370990&#45;&gt;371004 -->
<g id="edge12" class="edge"><title>370990&#45;&gt;371004</title>
<path fill="none" stroke="black" d="M558.93,-380.83C561.096,-369.661 563.414,-357.703 565.405,-347.435"/>
<polygon fill="black" stroke="black" points="568.873,-347.935 567.341,-337.451 562.001,-346.602 568.873,-347.935"/>
</g>
<!-- 370992 -->
<g id="node2" class="node"><title>370992</title>
<polygon fill="#ebf3ff" stroke="#6666cc" points="435.53,-466 243.53,-466 243.53,-374 435.53,-374 435.53,-466"/>
<text text-anchor="middle" x="339.53" y="-445" font-family="FreeSans" font-size="10.00">DEV&#45;MUC3&#45;1221: SENATOR</text>
<text text-anchor="middle" x="339.53" y="-434" font-family="FreeSans" font-size="10.00">FEDERICO ESTRADA VELEZ, ONE OF</text>
<text text-anchor="middle" x="339.53" y="-423" font-family="FreeSans" font-size="10.00">THE MOST IMPORTANT LEADERS OF</text>
<text text-anchor="middle" x="339.53" y="-412" font-family="FreeSans" font-size="10.00">COLOMBIA&#39;S LIBERAL PARTY, WAS</text>
<text text-anchor="middle" x="339.53" y="-401" font-family="FreeSans" font-size="10.00">KIDNAPPED BY UNIDENTIFIED</text>
<text text-anchor="middle" x="339.53" y="-390" font-family="FreeSans" font-size="10.00">INDIVIDUALS IN MEDELLIN TODAY.</text>
</g>
<!-- 370992&#45;&gt;371002 -->
<g id="edge5" class="edge"><title>370992&#45;&gt;371002</title>
<path fill="none" stroke="black" d="M243.403,-375.588C213.644,-362.148 182.628,-348.141 159.465,-337.68"/>
<polygon fill="black" stroke="black" points="160.6,-334.353 150.046,-333.427 157.719,-340.732 160.6,-334.353"/>
</g>
<!-- 370992&#45;&gt;371003 -->
<g id="edge9" class="edge"><title>370992&#45;&gt;371003</title>
<path fill="none" stroke="black" d="M342.764,-373.729C343.384,-365.04 344.016,-356.194 344.581,-348.292"/>
<polygon fill="black" stroke="black" points="348.08,-348.429 345.301,-338.205 341.097,-347.93 348.08,-348.429"/>
</g>
<!-- 370992&#45;&gt;371004 -->
<g id="edge13" class="edge"><title>370992&#45;&gt;371004</title>
<path fill="none" stroke="black" d="M435.649,-377.775C438.643,-376.501 441.609,-375.24 444.53,-374 473.842,-361.554 507.044,-347.594 532.004,-337.126"/>
<polygon fill="black" stroke="black" points="533.611,-340.248 541.48,-333.154 530.905,-333.792 533.611,-340.248"/>
</g>
<!-- 370994 -->
<g id="node3" class="node"><title>370994</title>
<polygon fill="#ebf3ff" stroke="#6666cc" points="219.53,-459 25.5301,-459 25.5301,-381 219.53,-381 219.53,-459"/>
<text text-anchor="middle" x="122.53" y="-439.5" font-family="FreeSans" font-size="10.00">DEV&#45;MUC3&#45;1212: SENATOR ESTRADA</text>
<text text-anchor="middle" x="122.53" y="-428.5" font-family="FreeSans" font-size="10.00">VELEZ WAS KIDNAPPED ON 27</text>
<text text-anchor="middle" x="122.53" y="-417.5" font-family="FreeSans" font-size="10.00">MARCH NEAR HIS HOME BY THE</text>
<text text-anchor="middle" x="122.53" y="-406.5" font-family="FreeSans" font-size="10.00">EXTRADITABLES, THE MEDELLIN</text>
<text text-anchor="middle" x="122.53" y="-395.5" font-family="FreeSans" font-size="10.00">CARTEL&#39;S ARMED WING.</text>
</g>
<!-- 370997 -->
<g id="node5" class="node"><title>370997</title>
<polygon fill="#e6ffe6" stroke="#66cc66" points="111.53,-180 8.53006,-162 111.53,-144 214.53,-162 111.53,-180"/>
<text text-anchor="middle" x="111.53" y="-159.5" font-family="FreeSans" font-size="10.00">EvidenceToHypothesis</text>
</g>
<!-- 370994&#45;&gt;370997 -->
<g id="edge2" class="edge"><title>370994&#45;&gt;370997</title>
<path fill="none" stroke="black" d="M48.6024,-380.809C33.2995,-369.237 19.2095,-354.989 10.5301,-338 -15.0791,-287.874 10.9593,-261.182 44.5301,-216 54.3762,-202.748 68.3271,-191 80.9516,-181.954"/>
<polygon fill="black" stroke="black" points="83.1551,-184.686 89.413,-176.137 79.1896,-178.918 83.1551,-184.686"/>
</g>
<!-- 370994&#45;&gt;371002 -->
<g id="edge6" class="edge"><title>370994&#45;&gt;371002</title>
<path fill="none" stroke="black" d="M122.53,-380.83C122.53,-370.016 122.53,-358.461 122.53,-348.417"/>
<polygon fill="black" stroke="black" points="126.03,-348.219 122.53,-338.219 119.03,-348.219 126.03,-348.219"/>
</g>
<!-- 370994&#45;&gt;371003 -->
<g id="edge10" class="edge"><title>370994&#45;&gt;371003</title>
<path fill="none" stroke="black" d="M209.455,-380.97C244.066,-365.828 282.044,-349.213 309.23,-337.319"/>
<polygon fill="black" stroke="black" points="310.973,-340.377 318.731,-333.162 308.167,-333.964 310.973,-340.377"/>
</g>
<!-- 370996 -->
<g id="node4" class="node"><title>370996</title>
<polygon fill="#ebf3ff" stroke="#6666cc" points="495.53,-108 357.53,-108 357.53,-72 495.53,-72 495.53,-108"/>
<text text-anchor="middle" x="426.53" y="-87.5" font-family="FreeSans" font-size="10.00">The date was 1990&#45;03&#45;27</text>
</g>
<!-- 371005 -->
<g id="node12" class="node"><title>371005</title>
<polygon fill="#ffe6e6" stroke="#cc6666" points="477.53,-36 403.346,-18 477.53,-3.55271e-15 551.714,-18 477.53,-36"/>
<text text-anchor="middle" x="477.53" y="-15.5" font-family="FreeSans" font-size="10.00">Default Conflict</text>
</g>
<!-- 370996&#45;&gt;371005 -->
<g id="edge15" class="edge"><title>370996&#45;&gt;371005</title>
<path fill="none" stroke="black" d="M439.137,-71.6966C445.641,-62.7694 453.664,-51.7577 460.691,-42.1127"/>
<polygon fill="black" stroke="black" points="463.732,-43.8817 466.792,-33.7383 458.075,-39.7597 463.732,-43.8817"/>
</g>
<!-- 370997&#45;&gt;370996 -->
<g id="edge1" class="edge"><title>370997&#45;&gt;370996</title>
<path fill="none" stroke="black" d="M154.669,-151.414C204.149,-140.418 286.299,-122.162 347.368,-108.591"/>
<polygon fill="black" stroke="black" points="348.36,-111.957 357.362,-106.371 346.841,-105.123 348.36,-111.957"/>
</g>
<!-- 370998 -->
<g id="node6" class="node"><title>370998</title>
<polygon fill="#ebf3ff" stroke="#6666cc" points="400.53,-259 292.53,-259 292.53,-223 400.53,-223 400.53,-259"/>
<text text-anchor="middle" x="346.53" y="-238.5" font-family="FreeSans" font-size="10.00">A kidnapping event</text>
</g>
<!-- 370999 -->
<g id="node7" class="node"><title>370999</title>
<polygon fill="#ebf3ff" stroke="#6666cc" points="597.53,-259 459.53,-259 459.53,-223 597.53,-223 597.53,-259"/>
<text text-anchor="middle" x="528.53" y="-238.5" font-family="FreeSans" font-size="10.00">The date was 1990&#45;04&#45;03</text>
</g>
<!-- 371006 -->
<g id="node13" class="node"><title>371006</title>
<polygon fill="#ffe6e6" stroke="#cc6666" points="426.53,-180 352.346,-162 426.53,-144 500.714,-162 426.53,-180"/>
<text text-anchor="middle" x="426.53" y="-159.5" font-family="FreeSans" font-size="10.00">Default Conflict</text>
</g>
<!-- 370999&#45;&gt;371006 -->
<g id="edge17" class="edge"><title>370999&#45;&gt;371006</title>
<path fill="none" stroke="black" d="M505.893,-222.911C489.9,-210.838 468.45,-194.645 451.882,-182.138"/>
<polygon fill="black" stroke="black" points="453.808,-179.207 443.718,-175.975 449.59,-184.793 453.808,-179.207"/>
</g>
<!-- 371001 -->
<g id="node8" class="node"><title>371001</title>
<polygon fill="#ebf3ff" stroke="#6666cc" points="191.53,-266 53.5301,-266 53.5301,-216 191.53,-216 191.53,-266"/>
<text text-anchor="middle" x="122.53" y="-249.5" font-family="FreeSans" font-size="10.00">The victim was FEDERICO</text>
<text text-anchor="middle" x="122.53" y="-238.5" font-family="FreeSans" font-size="10.00">ESTRADA VELEZ, and the</text>
<text text-anchor="middle" x="122.53" y="-227.5" font-family="FreeSans" font-size="10.00">location was Medellin</text>
</g>
<!-- 371002&#45;&gt;371001 -->
<g id="edge3" class="edge"><title>371002&#45;&gt;371001</title>
<path fill="none" stroke="black" d="M122.53,-301.911C122.53,-294.332 122.53,-285.13 122.53,-276.235"/>
<polygon fill="black" stroke="black" points="126.03,-276.05 122.53,-266.05 119.03,-276.05 126.03,-276.05"/>
</g>
<!-- 371003&#45;&gt;370998 -->
<g id="edge7" class="edge"><title>371003&#45;&gt;370998</title>
<path fill="none" stroke="black" d="M346.53,-301.911C346.53,-292.341 346.53,-280.183 346.53,-269.323"/>
<polygon fill="black" stroke="black" points="350.03,-269.041 346.53,-259.041 343.03,-269.041 350.03,-269.041"/>
</g>
<!-- 371004&#45;&gt;370999 -->
<g id="edge11" class="edge"><title>371004&#45;&gt;370999</title>
<path fill="none" stroke="black" d="M562.031,-303.418C556.508,-293.293 549.172,-279.843 542.772,-268.111"/>
<polygon fill="black" stroke="black" points="545.755,-266.269 537.894,-259.167 539.61,-269.621 545.755,-266.269"/>
</g>
<!-- 371005&#45;&gt;370999 -->
<g id="edge14" class="edge"><title>371005&#45;&gt;370999</title>
<path fill="none" stroke="black" d="M486.973,-34.1928C492.937,-44.4893 500.292,-58.6105 504.53,-72 519.772,-120.158 525.363,-179.162 527.393,-212.885"/>
<polygon fill="black" stroke="black" points="523.9,-213.104 527.935,-222.9 530.89,-212.726 523.9,-213.104"/>
</g>
<!-- 371006&#45;&gt;370996 -->
<g id="edge16" class="edge"><title>371006&#45;&gt;370996</title>
<path fill="none" stroke="black" d="M426.53,-143.697C426.53,-135.983 426.53,-126.712 426.53,-118.112"/>
<polygon fill="black" stroke="black" points="430.03,-118.104 426.53,-108.104 423.03,-118.104 430.03,-118.104"/>
</g>
</g>
</svg>
